<svg width="25" height="28" viewBox="0 0 25 28" fill="none" xmlns="http://www.w3.org/2000/svg">
<path d="M23.0703 13.6687C22.8209 13.6687 22.5739 13.7175 22.3436 13.8124C22.1132 13.9073 21.904 14.0464 21.7279 14.2217C21.5518 14.397 21.4123 14.605 21.3173 14.8339C21.2224 15.0628 21.1739 15.308 21.1747 15.5556C21.1747 17.2627 20.6646 18.9315 19.7089 20.3509C18.7532 21.7703 17.3949 22.8766 15.8056 23.5299C14.2164 24.1832 12.4677 24.3541 10.7805 24.0211C9.0934 23.688 7.54368 22.866 6.32733 21.6589C5.11098 20.4517 4.28263 18.9138 3.94704 17.2395C3.61145 15.5651 3.7837 13.8297 4.44198 12.2525C5.10027 10.6753 6.21502 9.32727 7.64529 8.37884C9.07557 7.43041 10.7571 6.92419 12.4773 6.92419V10.1083L20.9993 5.05415L12.4773 0V3.18973C10.0043 3.19419 7.58824 3.92652 5.53476 5.29405C3.48128 6.66159 1.88268 8.60288 0.941235 10.8723C-0.000212421 13.1417 -0.242201 15.6373 0.245887 18.0432C0.733974 20.4492 1.93021 22.6574 3.68322 24.3884C5.43624 26.1195 7.66726 27.2956 10.094 27.768C12.5207 28.2404 15.0341 27.9878 17.3162 27.0422C19.5983 26.0966 21.5464 24.5005 22.9141 22.4558C24.2819 20.4111 25.0078 18.0098 24.9999 15.5556C25.0007 15.3052 24.9511 15.0572 24.8541 14.826C24.7571 14.5949 24.6145 14.3853 24.4348 14.2096C24.2551 14.0339 24.0418 13.8955 23.8075 13.8026C23.5732 13.7097 23.3226 13.6642 23.0703 13.6687Z" fill="#FF6024"/>
</svg>
