<svg xmlns="http://www.w3.org/2000/svg" width="500" height="500"><defs><filter id="a" color-interpolation-filters="sRGB"><feGaussianBlur result="result1" stdDeviation="3"/><feBlend in2="result1" result="result5" mode="multiply" in="result1"/><feGaussianBlur in="result5" result="result6" stdDeviation="1"/><feComposite in2="result5" result="result8" in="result6" operator="xor"/><feComposite in2="result8" in="result6" result="fbSourceGraphic" operator="xor"/><feSpecularLighting in="fbSourceGraphic" result="result1" lighting-color="#fff" surfaceScale="2" specularConstant="2.2" specularExponent="55"><fePointLight x="-5000" y="-10000" z="20000"/></feSpecularLighting><feComposite in2="fbSourceGraphic" in="result1" result="result2" operator="in"/><feComposite in2="result2" in="fbSourceGraphic" result="result4" operator="arithmetic" k2="2" k3="1"/><feComposite in2="result4" operator="in" result="result91"/><feBlend in2="result91" mode="darken"/></filter></defs><path d="M459.055 250c0 115.458-93.597 209.055-209.055 209.055-115.458 0-209.055-93.597-209.055-209.055 0-115.458 93.597-209.055 209.055-209.055 115.458 0 209.055 93.597 209.055 209.055z"/><g transform="matrix(.28422 0 0 .28423 -99.182 349.214)" filter="url(#a)"><g stroke="#f52929" stroke-linejoin="round"><path d="M1228.572-1041.88c-58.474 0-115.279 7.288-169.52 20.926l-35.665 126.26-117.373-67.577c-111.97 59.018-205.833 147.813-271.022 255.833l81.795 149.366-160.014 38.017c-13.724 54.394-21.016 111.29-21.016 169.945 0 54.867 6.343 108.295 18.4 159.481l128.011 33.832L612.843-31.28c61.18 118.272 155.402 216.677 270.498 282.95l129.407-71.5 39.066 140.734a694.074 694.074 0 00176.757 22.845c63.378 0 124.714-8.65 183.036-24.59l36.886-132.1 115.542 70.192c106.246-58.904 195.355-144.983 258.029-248.77l-81.795-150.238 160.276-38.28c13.569-54.107 20.84-110.757 20.84-169.072 0-68-9.817-133.665-28.078-195.755l-118.332-37.058 60.256-101.932c-61.196-110.65-151.718-202.78-261.168-265.86l-115.018 63.043-35.753-127.393c-61.783-18.062-127.1-27.816-194.72-27.816zm0 274.23c231.167 0 418.566 187.387 418.566 418.54 0 231.153-187.399 418.54-418.566 418.54-231.168 0-418.567-187.387-418.567-418.54 0-231.153 187.399-418.54 418.566-418.54z" fill="red" stroke-width="8.371"/><path d="M1218.32-1019.79c-47.658.864-95.26 6.433-141.625 17.25-12.262 40.52-20.571 82.562-36.875 121.75-10.983 11.103-29.667 7.254-40.343-2.312a15614.754 15614.754 0 00-93.875-53.937c-99.599 54.835-184.706 135.051-245.188 231.375 25.648 48.952 55.542 96.01 77.875 146.656.274 16.055-16.638 27.024-31.5 26.625-43.858 10.8-87.854 21.023-131.781 31.531-22.085 95.99-22.988 197.046-2.219 293.407 40.828 11.846 82.984 19.397 122.719 34.656 11.7 10.66 8.535 30.107-1.688 40.656-18.056 33.973-37.31 67.3-55.875 101C694.827 74.9 780.8 164.558 883.852 226.492c42.34-22.565 82.873-48.776 126.968-67.812 15.683-.21 26.618 15.733 26.907 30.25 11.227 37.717 21.275 75.843 31.968 113.75 105.96 25.89 218.548 25.401 324.22-1.72 12.57-42.333 21.568-86.03 37.593-127.28 10.6-11.645 30.33-8.569 40.375 2.25 31.136 18.046 61.664 37.136 92.469 55.75 94.229-54.377 174.467-132.026 232.343-224.032-25.762-49.225-55.496-96.556-77.906-147.468-.263-16.134 16.573-26.867 31.375-26.625 43.99-10.904 88.127-21.201 132.188-31.813 24.59-108.052 22.711-222.518-7.157-329.344-38.07-13.117-77.889-21.519-114.625-38.25-10.75-11.146-6.749-29.752 3.282-40 15.153-26.146 30.444-52.197 45.968-78.125-56.786-98.588-138.735-181.906-236.28-240.531-37.459 19.632-73.358 43.11-112.532 59.344-15.969.232-26.693-16.177-27.156-30.813-9.901-33.208-19.06-66.773-28.438-100.25-60.812-16.735-124.001-24.321-187.094-23.562zm12.22 229.876c157.907-.344 312.575 91.748 386.03 231.719 65.127 119.934 70.684 271.15 11.72 394.656-52.513 113.826-155.58 203.342-276.43 237.557-110.691 32.477-234.268 19.523-334.954-36.635-100.144-54.63-177.651-149.163-210.081-258.637-31.476-103.06-23.6-217.779 22.813-315.096 44.392-95.002 123.716-173.214 219.839-215.283 56.7-25.365 118.837-38.607 181.062-38.281z" fill="maroon" stroke-width="8.371"/><path d="M1697.143-349.066c0 258.784-209.787 468.571-468.572 468.571C969.787 119.505 760-90.282 760-349.066c0-258.785 209.787-468.572 468.571-468.572 258.785 0 468.572 209.787 468.572 468.572z" fill="maroon" stroke-width="3"/><path d="M1231.429-349.066c0 5.522-1.28 10-2.858 10-1.577 0-2.857-4.478-2.857-10 0-5.523 1.28-10 2.857-10 1.578 0 2.858 4.477 2.858 10z" fill="maroon" stroke-width="3"/></g></g></svg>