<svg xmlns="http://www.w3.org/2000/svg" width="400" height="439.462"><path d="M350.673.532c-4.169.902-27.999 6.558-68.61 16.285C164.518 44.972 145.143 49.853 139.238 52.8c-9.865 4.923-18.458 15.601-21.767 27.051-1.478 5.113-1.709 22.149-1.745 128.566l-.031 93.842-1.009-.229c-5.502-1.251-19.046-1.594-27.334-.694-59.958 6.517-103.008 61.417-81.76 104.269 13.861 27.956 50.382 40.413 90.148 30.749 32.476-7.893 62.063-34.549 69.101-62.256 1.769-6.966 1.896-13.799 2.174-117.147.143-53.151.387-100.112.543-104.359l.282-7.721 1.394-.453c3.095-1.006 75.065-18.428 136.147-32.957 38.721-9.211 41.646-9.875 41.99-9.531.891.891 1.08 16.18.964 77.812-.142 74.973.052 70.367-2.928 69.438-2.761-.861-24.379-.662-30.116.277-38.117 6.239-69.339 30.536-80.058 62.3-3.53 10.46-2.792 29.822 1.49 39.089 19.752 42.754 86.865 49.199 132.128 12.689 15.032-12.126 27.312-31.221 29.179-45.374 2.517-19.087 2.695-276.77.196-285.395-5.959-20.574-29.062-36.233-47.553-32.234" fill-rule="evenodd"/></svg>