<svg xmlns="http://www.w3.org/2000/svg" viewBox="0 0 496 496"><path fill="#fcd770" d="M409.528 40h72l-16 32 16 32h-72z"/><path d="M425.528 424V8h-384c-17.672 0-32 14.328-32 32v416l416-32z" fill="#ececec"/><path d="M73.528 456h-64V40c0-17.672 14.328-32 32-32h32v448z" fill="#fb5968"/><path d="M425.528 424h-16c-17.672 0-32 14.328-32 32s14.328 32 32 32h16-384c-17.672 0-32-14.328-32-32s14.328-32 32-32h384z" fill="#ececec"/><path fill="#fcd770" d="M105.528 168h288v128h-288z"/><path fill="#ffc729" d="M105.528 280h288v16h-288z"/><path d="M121.88 141.648l15.288 4.704L147.744 112h43.568l10.568 34.352 15.288-4.704-9.12-29.648h9.48V96h-14.4L183.44 32h-27.824l-19.688 64h-14.4v16h9.48l-9.128 29.648zM167.44 48h4.176l14.768 48h-33.72l14.776-48zm138.088 64c0-9.544-4.2-18.136-10.856-24 6.656-5.864 10.856-14.456 10.856-24 0-17.648-14.352-32-32-32h-32v112h32c17.648 0 32-14.352 32-32zm-48-64h16c8.824 0 16 7.176 16 16s-7.176 16-16 16h-16V48zm0 48h16c8.824 0 16 7.176 16 16s-7.176 16-16 16h-16V96zm120 48v-16c-22.056 0-40-17.944-40-40s17.944-40 40-40V32c-30.88 0-56 25.12-56 56s25.12 56 56 56zm-280 160h304V160h-304v144zm16-128h272v112h-272V176zm-8 144h288v16h-288zm0 32h288v16h-288zm272 32h16v16h-16zm-272 0h256v16h-256z"/><path d="M474.472 72l20-40h-60.944V0h-392c-22.056 0-40 17.944-40 40v416c0 22.056 17.944 40 40 40h392v-16h-24c-13.232 0-24-10.768-24-24s10.768-24 24-24h24V112h60.944l-20-40zm-96.736 408H41.528c-13.232 0-24-10.768-24-24s10.768-24 24-24h336.208c-5.08 6.704-8.208 14.96-8.208 24s3.128 17.296 8.208 24zm31.792-64h-328v-32h-16v32h-24c-9 0-17.312 2.992-24 8.016V40c0-13.232 10.768-24 24-24h24v352h16V16h336v400h-8zm59.056-320h-35.056V48h35.056l-12 24 12 24z"/><path d="M65.528 448h288v16h-288zm-32 0h16v16h-16z"/></svg>