<svg xmlns="http://www.w3.org/2000/svg" viewBox="0 -256 1792 1792"><path d="M1657.492-2.17v448q0 26-19 45t-45 19h-448q-42 0-59-40-17-39 14-69l138-138q-148-137-349-137-104 0-198.5 40.5t-163.5 109.5q-69 69-109.5 163.5t-40.5 198.5q0 104 40.5 198.5t109.5 163.5q69 69 163.5 109.5t198.5 40.5q169 0 304-99.5t185-261.5q7-23 30-23h199q16 0 25 12 10 13 7 27-39 175-147.5 312t-266 213q-157.5 76-336.5 76-156 0-298-61t-245-164q-103-103-164-245t-61-298q0-156 61-298t164-245q103-103 245-164t298-61q147 0 284.5 55.5t244.5 156.5l130-129q29-31 70-14 39 17 39 59z" fill="#fff"/></svg>