<svg xmlns="http://www.w3.org/2000/svg" width="400" height="400"><path d="M149.333 106.849c-182.646 20.535-190.556 145.625-10.666 168.682a6078.965 6078.965 0 0022.617 2.86l7.506.923.494 23.803.494 23.803 44.444-34.561c24.445-19.008 44.445-35.37 44.445-36.359 0-.989-20-17.351-44.445-36.359l-44.444-34.561-.498 23.214-.497 23.214-10.169-1.168c-44.444-5.103-85.59-18.761-98.955-32.845l-5.229-5.512 5.815-6c42.903-44.264 240.596-44.027 279.547.335l5.358 6.103-5.019 5.293c-5.949 6.271-23.413 15.344-40.131 20.848l-12 3.95v48.106l6.624-1.243c85.494-16.039 123.433-76.817 75.199-120.466-36.951-33.439-133.446-51.846-220.49-42.06" fill-rule="evenodd"/></svg>